PathFileType	4	(X/Y/Z)	/Users/itak/Documents/Research/Walk-IL/dataset/trc/00108_00007.trc
DataRate	CameraRate	NumFrames	NumMarkers	Units	OrigDataRate	OrigDataStartFrame	OrigNumFrames
100.000000	100.000000	4	53	mm	100.000000	325	520
Frame#	Time	RPSI			LPSI			L3			STRN			T10			C7			CLAV			RBAK			LBAK			LSHO			LUPA			LAEL			LAOL			LWTS			LWPS			LFRA			LIFD			LHPS			LHTS			RSHO			RUPA			RAEL			RAOL			RWTS			RWPS			RFRA			RIFD			RHTS			RHPS			RBHD			LFHD			RFHD			LBHD			LHIP			RHIP			RASI			LASI			LKNE			LTHI			LANK			LTIP			LTOE			LMT1			LMT5			LHEE			RKNE			RTHI			RANK			RTIP			RTOE			RMT1			RMT5			RHEE			
		X1	Y1	Z1	X2	Y2	Z2	X3	Y3	Z3	X4	Y4	Z4	X5	Y5	Z5	X6	Y6	Z6	X7	Y7	Z7	X8	Y8	Z8	X9	Y9	Z9	X10	Y10	Z10	X11	Y11	Z11	X12	Y12	Z12	X13	Y13	Z13	X14	Y14	Z14	X15	Y15	Z15	X16	Y16	Z16	X17	Y17	Z17	X18	Y18	Z18	X19	Y19	Z19	X20	Y20	Z20	X21	Y21	Z21	X22	Y22	Z22	X23	Y23	Z23	X24	Y24	Z24	X25	Y25	Z25	X26	Y26	Z26	X27	Y27	Z27	X28	Y28	Z28	X29	Y29	Z29	X30	Y30	Z30	X31	Y31	Z31	X32	Y32	Z32	X33	Y33	Z33	X34	Y34	Z34	X35	Y35	Z35	X36	Y36	Z36	X37	Y37	Z37	X38	Y38	Z38	X39	Y39	Z39	X40	Y40	Z40	X41	Y41	Z41	X42	Y42	Z42	X43	Y43	Z43	X44	Y44	Z44	X45	Y45	Z45	X46	Y46	Z46	X47	Y47	Z47	X48	Y48	Z48	X49	Y49	Z49	X50	Y50	Z50	X51	Y51	Z51	X52	Y52	Z52	X53	Y53	Z53	

326	3.25	-785.8924560546875	1102.845336914062	-282.0650939941406	-766.412353515625	1106.408325195312	-416.9666137695312	-780.8713989257812	1146.863647460938	-355.7779235839844	-535.512939453125	1328.318359375	-331.2350158691406	-791.6325073242188	1303.872314453125	-365.7110595703125	-718.4208374023438	1590.591552734375	-379.4352111816406	-553.323486328125	1466.884643554688	-340.5006103515625	-802.5994873046875	1414.496826171875	-298.3632507324219	-711.6846313476562	1569.281005859375	-481.3367309570312	-617.015625	1545.861450195312	-533.0226440429688	-626.4853515625	1413.92333984375	-603.5471801757812	-598.29296875	1195.927734375	-622.7444458007812	-672.5783081054688	1178.173461914062	-578.7387084960938	-480.7374877929688	951.6663818359375	-561.918212890625	-553.3130493164062	916.5208740234375	-600.1277465820312	-571.5685424804688	1082.102661132812	-623.1273803710938	-449.442138671875	761.6400756835938	-536.39453125	-514.7689819335938	846.1539306640625	-596.2982177734375	-453.56787109375	865.240478515625	-569.6937866210938	-693.9556274414062	1570.433959960938	-190.5028228759766	-726.6014404296875	1499.51220703125	-130.1253967285156	-770.1531372070312	1207.897094726562	-113.6390686035156	-752.4884643554688	1204.049194335938	-209.6521148681641	-636.7573852539062	963.0323486328125	-78.91670227050781	-716.6716918945312	947.1913452148438	-71.73589324951172	-755.2183227539062	1133.758666992188	-91.49723052978516	-610.6983032226562	767.3831176757812	-76.878662109375	-612.0418090820312	855.1966552734375	-59.69693756103516	-684.5914306640625	848.4531860351562	-51.94595336914062	-678.4859619140625	1756.134033203125	-293.0794982910156	-510.5028381347656	1812.195068359375	-423.4261169433594	-515.8237915039062	1825.552124023438	-294.1747131347656	-681.052490234375	1746.271240234375	-428.5505676269531	-663.0995483398438	1014.203186035156	-515.5022583007812	-669.93359375	1007.027038574219	-149.3763122558594	-584.1538696289062	1079.118041992188	-199.7362518310547	-559.4976806640625	1071.184692382812	-462.0081176757812	-652.5758666992188	504.9844360351562	-467.8977355957031	-664.4608764648438	655.1392211914062	-500.107421875	-936.9376831054688	62.71954727172852	-465.7831420898438	-829.3236694335938	293.6116027832031	-496.3898010253906	-714.4204711914062	35.5020751953125	-392.8026428222656	-795.222412109375	45.86526107788086	-367.3937377929688	-814.929931640625	34.77653121948242	-483.5707092285156	-1008.906311035156	87.46907806396484	-409.457275390625	-521.6365966796875	541.7119140625	-174.6221771240234	-600.0748901367188	805.5360107421875	-145.2062530517578	-449.1266784667969	22.18481254577637	-205.1065979003906	-506.2500305175781	408.3761901855469	-163.6146697998047	-221.0515747070312	74.77894592285156	-239.374755859375	-277.8967895507812	69.7835693359375	-287.57763671875	-313.8262634277344	40.75912094116211	-179.6226501464844	-504.8738098144531	28.54585838317871	-257.071533203125	
327	3.26	-796.2792358398438	1102.180541992188	-284.0838928222656	-776.4104614257812	1106.203979492188	-418.8824157714844	-791.3479614257812	1146.610717773438	-357.7847900390625	-544.8073120117188	1327.703979492188	-332.7091979980469	-800.9337158203125	1303.912963867188	-367.3130798339844	-726.6475219726562	1590.462280273438	-381.0568237304688	-561.9238891601562	1466.405517578125	-341.9786376953125	-811.3726806640625	1414.638549804688	-299.9716796875	-719.892822265625	1569.143310546875	-482.9868469238281	-625.2615356445312	1545.537109375	-534.5048828125	-634.3078002929688	1413.644409179688	-605.0388793945312	-604.8585205078125	1195.7392578125	-624.1344604492188	-679.46923828125	1177.629516601562	-580.78369140625	-486.3150634765625	952.2426147460938	-562.090576171875	-558.2444458007812	916.6005859375	-600.9636840820312	-577.4430541992188	1082.066284179688	-624.2473754882812	-453.9950561523438	762.4451293945312	-536.0878295898438	-519.267578125	846.5039672851562	-596.7201538085938	-458.3715515136719	866.0684814453125	-569.5501708984375	-702.3480834960938	1570.353515625	-192.0897827148438	-735.1746215820312	1499.447875976562	-131.7632141113281	-779.2579345703125	1207.753173828125	-116.1172332763672	-761.2039184570312	1204.040893554688	-212.0188903808594	-645.5103149414062	963.1127319335938	-81.00211334228516	-725.456787109375	947.0555419921875	-74.29898071289062	-764.3468017578125	1133.55810546875	-94.00296020507812	-619.02099609375	767.5079345703125	-79.00932312011719	-620.693603515625	855.2923583984375	-61.77799224853516	-693.2325439453125	848.3850708007812	-54.44548034667969	-686.3201904296875	1755.96923828125	-294.7747802734375	-518.1221313476562	1811.490478515625	-425.0768432617188	-523.4414672851562	1824.903442382812	-295.8278503417969	-688.8511352539062	1746.082763671875	-430.2491760253906	-673.0167236328125	1014.242370605469	-517.4300537109375	-680.5001831054688	1006.227478027344	-151.3572387695312	-594.6771850585938	1078.4921875	-201.5082550048828	-569.3732299804688	1070.986938476562	-463.7105407714844	-661.8167114257812	505.2960510253906	-468.9393615722656	-674.1126708984375	655.1624755859375	-501.5739440917969	-938.3941040039062	59.35417938232422	-464.9727478027344	-834.7920532226562	291.0917663574219	-496.5644836425781	-714.43994140625	35.39197158813477	-392.6705322265625	-795.7432250976562	45.25754547119141	-367.0998229980469	-815.456787109375	34.60198593139648	-483.6016235351562	-1010.847961425781	81.94524383544922	-408.4105834960938	-527.7713623046875	542.6898803710938	-174.6421661376953	-609.6239013671875	805.4732666015625	-146.0767364501953	-452.2000122070312	22.45694160461426	-203.2655334472656	-511.5870971679688	409.4695434570312	-163.0970001220703	-225.3840637207031	78.65773773193359	-239.0634155273438	-282.5817565917969	73.2591552734375	-286.7347412109375	-316.9893798828125	41.10049819946289	-178.9591369628906	-508.59521484375	28.84401702880859	-254.5839080810547	
328	3.27	-806.4841918945312	1101.740112304688	-286.0960693359375	-786.2064208984375	1106.111206054688	-420.7976379394531	-801.5601806640625	1146.499633789062	-359.7512817382812	-553.9776611328125	1327.23681640625	-334.11767578125	-810.101318359375	1304.061767578125	-368.86669921875	-734.8241577148438	1590.450805664062	-382.5899353027344	-570.4743041992188	1466.057250976562	-343.3828735351562	-820.1151123046875	1414.901245117188	-301.4992980957031	-728.0771484375	1569.118286132812	-484.5444030761719	-633.4845581054688	1545.306640625	-535.9135131835938	-642.1806030273438	1413.450439453125	-606.4341430664062	-611.5791625976562	1195.637573242188	-625.474365234375	-686.4623413085938	1177.194702148438	-582.705078125	-492.0842895507812	952.9010009765625	-562.3036499023438	-563.3965454101562	916.776611328125	-601.7630004882812	-583.5173950195312	1082.119018554688	-625.3331909179688	-458.7766418457031	763.3240966796875	-535.8187255859375	-524.0078735351562	846.9446411132812	-597.1256103515625	-463.355712890625	866.9902954101562	-569.4254760742188	-710.6709594726562	1570.379150390625	-193.5831146240234	-743.6837768554688	1499.486938476562	-133.299560546875	-788.3449096679688	1207.7216796875	-118.3957977294922	-770.011474609375	1204.146606445312	-214.2065734863281	-654.2506103515625	963.2904663085938	-83.04267120361328	-734.217529296875	947.0181884765625	-76.73659515380859	-773.4461059570312	1133.464599609375	-96.32692718505859	-627.31494140625	767.741943359375	-81.18285369873047	-629.3111572265625	855.4938354492188	-63.87073516845703	-701.822998046875	848.4075317382812	-56.88441848754883	-694.0892944335938	1755.98828125	-296.4111022949219	-525.6796875	1810.861083984375	-426.7105712890625	-530.9802856445312	1824.375122070312	-297.4651794433594	-696.6083984375	1746.026000976562	-431.8779296875	-682.6983642578125	1014.373168945312	-519.2766723632812	-690.88720703125	1005.659484863281	-153.2926788330078	-605.0249633789062	1078.062744140625	-203.2100219726562	-579.04638671875	1070.90771484375	-465.3146057128906	-670.6174926757812	505.7043151855469	-469.7535095214844	-683.290771484375	655.27099609375	-502.8742980957031	-939.546630859375	56.27135848999023	-464.5592651367188	-839.6708374023438	288.7362060546875	-496.8688659667969	-714.5657348632812	35.35747528076172	-392.5713806152344	-796.281005859375	44.70524215698242	-366.9148254394531	-815.8340454101562	34.41400146484375	-483.726806640625	-1012.485778808594	76.82876586914062	-407.9125671386719	-533.4684448242188	543.9845581054688	-174.7100372314453	-618.8556518554688	805.7408447265625	-146.828857421875	-456.6338195800781	22.91363525390625	-201.4170227050781	-516.7222290039062	410.7716979980469	-162.6885986328125	-230.9919738769531	82.26567840576172	-238.7486877441406	-288.4528198242188	76.32938385009766	-285.9483032226562	-321.5624694824219	41.48565673828125	-178.2486572265625	-513.6068115234375	29.22187042236328	-252.1358642578125	
329	3.28	-816.5156860351562	1101.521606445312	-288.1011047363281	-795.7880249023438	1106.152954101562	-422.7117309570312	-811.5090942382812	1146.54833984375	-361.6833801269531	-563.0127563476562	1326.939086914062	-335.4443359375	-819.1373291015625	1304.33349609375	-370.4001770019531	-742.9456787109375	1590.571655273438	-384.0377807617188	-578.9655151367188	1465.8642578125	-344.7081298828125	-828.8290405273438	1415.29736328125	-302.9655456542969	-736.2233276367188	1569.223266601562	-486.0128479003906	-641.66748046875	1545.177734375	-537.2508544921875	-650.0969848632812	1413.348876953125	-607.7344360351562	-618.4525146484375	1195.626220703125	-626.7551879882812	-693.57080078125	1176.876098632812	-584.4947509765625	-498.056884765625	953.63916015625	-562.5604858398438	-568.7893676757812	917.051025390625	-602.5245361328125	-589.799072265625	1082.260986328125	-626.3800659179688	-463.7854309082031	764.2769775390625	-535.6115112304688	-529.0068359375	847.4761962890625	-597.5235595703125	-468.5563049316406	867.9939575195312	-569.3441162109375	-718.9381103515625	1570.516235351562	-194.9828643798828	-752.1359252929688	1499.6328125	-134.7413940429688	-797.3798828125	1207.802368164062	-120.4511642456055	-778.9012451171875	1204.36572265625	-216.1980438232422	-662.9651489257812	963.552734375	-85.0460205078125	-742.9371948242188	947.080810546875	-79.02082824707031	-782.4825439453125	1133.482666015625	-98.44671630859375	-635.5922241210938	768.0690307617188	-83.40055847167969	-637.8854370117188	855.7864990234375	-65.98366546630859	-710.3561401367188	848.516357421875	-59.23764801025391	-701.7894897460938	1756.199951171875	-297.9762878417969	-533.1815185546875	1810.330688476562	-428.3226318359375	-538.436767578125	1823.988525390625	-299.083740234375	-704.3284912109375	1746.110473632812	-433.4234924316406	-692.0913696289062	1014.617492675781	-521.0252075195312	-701.1048583984375	1005.330383300781	-155.1669921875	-615.2205200195312	1077.850830078125	-204.8104553222656	-588.4918212890625	1070.967651367188	-466.7857666015625	-679.0360107421875	506.2349548339844	-470.3073120117188	-692.0165405273438	655.4889526367188	-503.9697875976562	-940.4642333984375	53.47762680053711	-464.3913269042969	-844.1007080078125	286.5958251953125	-497.1932373046875	-714.759033203125	35.38426208496094	-392.4990234375	-796.8085327148438	44.19389724731445	-366.7957763671875	-816.0977172851562	34.24296188354492	-483.8800048828125	-1013.862915039062	72.09988403320312	-407.765380859375	-538.71337890625	545.5972900390625	-174.8936614990234	-627.7108154296875	806.3648681640625	-147.4829711914062	-462.6688537597656	23.53469657897949	-199.6146392822266	-521.7340698242188	412.2569580078125	-162.4708404541016	-238.0411834716797	85.43997955322266	-238.3456878662109	-295.658203125	78.863037109375	-285.1755676269531	-327.7828369140625	41.96287155151367	-177.4530639648438	-520.1112060546875	29.62517547607422	-249.8325653076172	
